<svg width="320" height="320" viewBox="0 0 320 320" xmlns="http://www.w3.org/2000/svg" shape-rendering="crispEdges"><rect width="50" height="10" x="160" y="40" fill="#1a1a1c" /><rect width="20" height="10" x="140" y="50" fill="#1a1a1c" /><rect width="50" height="10" x="160" y="50" fill="#fa2718" /><rect width="20" height="10" x="210" y="50" fill="#1a1a1c" /><rect width="10" height="10" x="130" y="60" fill="#1a1a1c" /><rect width="90" height="10" x="140" y="60" fill="#fa2718" /><rect width="10" height="10" x="230" y="60" fill="#1a1a1c" /><rect width="10" height="10" x="120" y="70" fill="#1a1a1c" /><rect width="110" height="10" x="130" y="70" fill="#fa2718" /><rect width="10" height="10" x="240" y="70" fill="#1a1a1c" /><rect width="10" height="10" x="120" y="80" fill="#1a1a1c" /><rect width="30" height="10" x="130" y="80" fill="#fa2718" /><rect width="10" height="10" x="160" y="80" fill="#1a1a1c" /><rect width="70" height="10" x="170" y="80" fill="#fa2718" /><rect width="10" height="10" x="240" y="80" fill="#1a1a1c" /><rect width="10" height="10" x="120" y="90" fill="#1a1a1c" /><rect width="20" height="10" x="130" y="90" fill="#fa2718" /><rect width="10" height="10" x="150" y="90" fill="#1a1a1c" /><rect width="10" height="10" x="160" y="90" fill="#ffb78e" /><rect width="10" height="10" x="170" y="90" fill="#1a1a1c" /><rect width="40" height="10" x="180" y="90" fill="#fa2718" /><rect width="10" height="10" x="220" y="90" fill="#1a1a1c" /><rect width="10" height="10" x="230" y="90" fill="#fa2718" /><rect width="10" height="10" x="240" y="90" fill="#1a1a1c" /><rect width="10" height="10" x="120" y="100" fill="#1a1a1c" /><rect width="10" height="10" x="130" y="100" fill="#fa2718" /><rect width="10" height="10" x="140" y="100" fill="#1a1a1c" /><rect width="30" height="10" x="150" y="100" fill="#ffb78e" /><rect width="10" height="10" x="180" y="100" fill="#1a1a1c" /><rect width="40" height="10" x="190" y="100" fill="#fa2718" /><rect width="20" height="10" x="230" y="100" fill="#1a1a1c" /><rect width="20" height="10" x="130" y="110" fill="#1a1a1c" /><rect width="10" height="10" x="150" y="110" fill="#ffb78e" /><rect width="20" height="10" x="160" y="110" fill="#1a1a1c" /><rect width="10" height="10" x="180" y="110" fill="#ffb78e" /><rect width="10" height="10" x="190" y="110" fill="#1a1a1c" /><rect width="10" height="10" x="200" y="110" fill="#fa2718" /><rect width="10" height="10" x="210" y="110" fill="#1a1a1c" /><rect width="20" height="10" x="220" y="110" fill="#fa2718" /><rect width="10" height="10" x="240" y="110" fill="#1a1a1c" /><rect width="10" height="10" x="140" y="120" fill="#1a1a1c" /><rect width="10" height="10" x="150" y="120" fill="#ffb78e" /><rect width="10" height="10" x="160" y="120" fill="#cdc629" /><rect width="10" height="10" x="170" y="120" fill="#ffffff" /><rect width="20" height="10" x="180" y="120" fill="#ffb78e" /><rect width="10" height="10" x="200" y="120" fill="#1a1a1c" /><rect width="10" height="10" x="210" y="120" fill="#ffb78e" /><rect width="10" height="10" x="220" y="120" fill="#1a1a1c" /><rect width="10" height="10" x="230" y="120" fill="#fa2718" /><rect width="10" height="10" x="240" y="120" fill="#1a1a1c" /><rect width="10" height="10" x="140" y="130" fill="#1a1a1c" /><rect width="10" height="10" x="150" y="130" fill="#ffb78e" /><rect width="10" height="10" x="160" y="130" fill="#cdc629" /><rect width="10" height="10" x="170" y="130" fill="#ffffff" /><rect width="40" height="10" x="180" y="130" fill="#ffb78e" /><rect width="20" height="10" x="220" y="130" fill="#1a1a1c" /><rect width="10" height="10" x="140" y="140" fill="#1a1a1c" /><rect width="60" height="10" x="150" y="140" fill="#ffb78e" /><rect width="20" height="10" x="210" y="140" fill="#1a1a1c" /><rect width="10" height="10" x="150" y="150" fill="#1a1a1c" /><rect width="30" height="10" x="160" y="150" fill="#ffb78e" /><rect width="20" height="10" x="190" y="150" fill="#1a1a1c" /><rect width="20" height="10" x="210" y="150" fill="#b216f2" /><rect width="10" height="10" x="230" y="150" fill="#1a1a1c" /><rect width="40" height="10" x="160" y="160" fill="#1a1a1c" /><rect width="40" height="10" x="200" y="160" fill="#b216f2" /><rect width="10" height="10" x="240" y="160" fill="#1a1a1c" /><rect width="10" height="10" x="170" y="170" fill="#1a1a1c" /><rect width="50" height="10" x="180" y="170" fill="#b216f2" /><rect width="10" height="10" x="230" y="170" fill="#1a1a1c" /><rect width="10" height="10" x="240" y="170" fill="#ffb78e" /><rect width="10" height="10" x="250" y="170" fill="#1a1a1c" /><rect width="10" height="10" x="160" y="180" fill="#1a1a1c" /><rect width="40" height="10" x="170" y="180" fill="#b216f2" /><rect width="20" height="10" x="210" y="180" fill="#1a1a1c" /><rect width="20" height="10" x="230" y="180" fill="#ffb78e" /><rect width="10" height="10" x="250" y="180" fill="#1a1a1c" /><rect width="10" height="10" x="150" y="190" fill="#1a1a1c" /><rect width="10" height="10" x="160" y="190" fill="#ffb78e" /><rect width="30" height="10" x="170" y="190" fill="#b216f2" /><rect width="10" height="10" x="200" y="190" fill="#1a1a1c" /><rect width="20" height="10" x="210" y="190" fill="#ffb78e" /><rect width="10" height="10" x="230" y="190" fill="#1a1a1c" /><rect width="20" height="10" x="240" y="190" fill="#ffb78e" /><rect width="10" height="10" x="260" y="190" fill="#1a1a1c" /><rect width="20" height="10" x="130" y="200" fill="#1a1a1c" /><rect width="10" height="10" x="150" y="200" fill="#ffb78e" /><rect width="10" height="10" x="160" y="200" fill="#1a1a1c" /><rect width="30" height="10" x="170" y="200" fill="#b216f2" /><rect width="10" height="10" x="200" y="200" fill="#1a1a1c" /><rect width="50" height="10" x="210" y="200" fill="#ffb78e" /><rect width="10" height="10" x="260" y="200" fill="#1a1a1c" /><rect width="10" height="10" x="120" y="210" fill="#1a1a1c" /><rect width="30" height="10" x="130" y="210" fill="#ffb78e" /><rect width="10" height="10" x="160" y="210" fill="#1a1a1c" /><rect width="30" height="10" x="170" y="210" fill="#b216f2" /><rect width="10" height="10" x="200" y="210" fill="#1a1a1c" /><rect width="40" height="10" x="210" y="210" fill="#ffb78e" /><rect width="10" height="10" x="250" y="210" fill="#1a1a1c" /><rect width="10" height="10" x="120" y="220" fill="#1a1a1c" /><rect width="30" height="10" x="130" y="220" fill="#ffb78e" /><rect width="10" height="10" x="160" y="220" fill="#1a1a1c" /><rect width="40" height="10" x="170" y="220" fill="#b216f2" /><rect width="40" height="10" x="210" y="220" fill="#1a1a1c" /><rect width="10" height="10" x="120" y="230" fill="#1a1a1c" /><rect width="20" height="10" x="130" y="230" fill="#ffb78e" /><rect width="20" height="10" x="150" y="230" fill="#1a1a1c" /><rect width="50" height="10" x="170" y="230" fill="#b216f2" /><rect width="10" height="10" x="220" y="230" fill="#1a1a1c" /><rect width="20" height="10" x="130" y="240" fill="#1a1a1c" /><rect width="10" height="10" x="170" y="240" fill="#1a1a1c" /><rect width="10" height="10" x="180" y="240" fill="#b216f2" /><rect width="10" height="10" x="190" y="240" fill="#1a1a1c" /><rect width="20" height="10" x="200" y="240" fill="#b216f2" /><rect width="10" height="10" x="220" y="240" fill="#1a1a1c" /><rect width="10" height="10" x="170" y="250" fill="#1a1a1c" /><rect width="20" height="10" x="180" y="250" fill="#b216f2" /><rect width="10" height="10" x="200" y="250" fill="#1a1a1c" /><rect width="20" height="10" x="210" y="250" fill="#b216f2" /><rect width="10" height="10" x="230" y="250" fill="#1a1a1c" /><rect width="10" height="10" x="170" y="260" fill="#1a1a1c" /><rect width="20" height="10" x="180" y="260" fill="#b216f2" /><rect width="10" height="10" x="200" y="260" fill="#1a1a1c" /><rect width="20" height="10" x="210" y="260" fill="#b216f2" /><rect width="10" height="10" x="230" y="260" fill="#1a1a1c" /><rect width="10" height="10" x="160" y="270" fill="#1a1a1c" /><rect width="30" height="10" x="170" y="270" fill="#ffb78e" /><rect width="20" height="10" x="200" y="270" fill="#1a1a1c" /><rect width="20" height="10" x="220" y="270" fill="#b216f2" /><rect width="10" height="10" x="240" y="270" fill="#1a1a1c" /><rect width="10" height="10" x="150" y="280" fill="#1a1a1c" /><rect width="40" height="10" x="160" y="280" fill="#ffb78e" /><rect width="20" height="10" x="200" y="280" fill="#1a1a1c" /><rect width="30" height="10" x="220" y="280" fill="#ffb78e" /><rect width="10" height="10" x="250" y="280" fill="#1a1a1c" /><rect width="60" height="10" x="150" y="290" fill="#1a1a1c" /><rect width="40" height="10" x="210" y="290" fill="#ffb78e" /><rect width="10" height="10" x="250" y="290" fill="#1a1a1c" /><rect width="60" height="10" x="200" y="300" fill="#1a1a1c" /></svg>